{
	"asset":{
		"generator":"Khronos glTF Blender I/O v3.6.27",
		"version":"2.0"
	},
	"scene":0,
	"scenes":[
		{
			"name":"Scene",
			"nodes":[
				0
			]
		}
	],
	"nodes":[
		{
			"mesh":0,
			"name":"Cube.007",
			"scale":[
				0.8288622498512268,
				0.7988568544387817,
				1.059596300125122
			],
			"translation":[
				-0.04147210344672203,
				0.5225338339805603,
				8.013206481933594
			]
		}
	],
	"materials":[
		{
			"doubleSided":true,
			"name":"Material.008",
			"pbrMetallicRoughness":{
				"metallicFactor":0,
				"roughnessFactor":0.5
			}
		},
		{
			"doubleSided":true,
			"name":"Material",
			"pbrMetallicRoughness":{
				"metallicFactor":0,
				"roughnessFactor":0.5
			}
		},
		{
			"doubleSided":true,
			"name":"Material.005",
			"pbrMetallicRoughness":{
				"metallicFactor":0,
				"roughnessFactor":0.5
			}
		},
		{
			"doubleSided":true,
			"name":"Material.001",
			"pbrMetallicRoughness":{
				"metallicFactor":0,
				"roughnessFactor":0.5
			}
		},
		{
			"doubleSided":true,
			"name":"Material.002",
			"pbrMetallicRoughness":{
				"metallicFactor":0,
				"roughnessFactor":0.5
			}
		},
		{
			"doubleSided":true,
			"name":"Material.003",
			"pbrMetallicRoughness":{
				"metallicFactor":0,
				"roughnessFactor":0.5
			}
		}
	],
	"meshes":[
		{
			"name":"Cube.004",
			"primitives":[
				{
					"attributes":{
						"POSITION":0,
						"NORMAL":1,
						"TEXCOORD_0":2
					},
					"indices":3,
					"material":0
				},
				{
					"attributes":{
						"POSITION":4,
						"NORMAL":5,
						"TEXCOORD_0":6
					},
					"indices":7,
					"material":1
				},
				{
					"attributes":{
						"POSITION":8,
						"NORMAL":9,
						"TEXCOORD_0":10
					},
					"indices":11,
					"material":2
				},
				{
					"attributes":{
						"POSITION":12,
						"NORMAL":13,
						"TEXCOORD_0":14
					},
					"indices":15,
					"material":3
				},
				{
					"attributes":{
						"POSITION":16,
						"NORMAL":17,
						"TEXCOORD_0":18
					},
					"indices":19,
					"material":4
				},
				{
					"attributes":{
						"POSITION":20,
						"NORMAL":21,
						"TEXCOORD_0":22
					},
					"indices":23,
					"material":5
				}
			]
		}
	],
	"accessors":[
		{
			"bufferView":0,
			"componentType":5126,
			"count":936,
			"max":[
				1.624923586845398,
				1.6362519264221191,
				32.53246307373047
			],
			"min":[
				-1.6620123386383057,
				-3.5242128372192383,
				-9.661905288696289
			],
			"type":"VEC3"
		},
		{
			"bufferView":1,
			"componentType":5126,
			"count":936,
			"type":"VEC3"
		},
		{
			"bufferView":2,
			"componentType":5126,
			"count":936,
			"type":"VEC2"
		},
		{
			"bufferView":3,
			"componentType":5123,
			"count":1620,
			"type":"SCALAR"
		},
		{
			"bufferView":4,
			"componentType":5126,
			"count":2304,
			"max":[
				0.9455751180648804,
				0.9932010769844055,
				1.270628571510315
			],
			"min":[
				-0.9826623201370239,
				-1.0074617862701416,
				0.928240180015564
			],
			"type":"VEC3"
		},
		{
			"bufferView":5,
			"componentType":5126,
			"count":2304,
			"type":"VEC3"
		},
		{
			"bufferView":6,
			"componentType":5126,
			"count":2304,
			"type":"VEC2"
		},
		{
			"bufferView":7,
			"componentType":5123,
			"count":3456,
			"type":"SCALAR"
		},
		{
			"bufferView":8,
			"componentType":5126,
			"count":5752,
			"max":[
				1.6317172050476074,
				2.3692259788513184,
				42.22744369506836
			],
			"min":[
				-8.66165542602539,
				-16.692258834838867,
				6.364309310913086
			],
			"type":"VEC3"
		},
		{
			"bufferView":9,
			"componentType":5126,
			"count":5752,
			"type":"VEC3"
		},
		{
			"bufferView":10,
			"componentType":5126,
			"count":5752,
			"type":"VEC2"
		},
		{
			"bufferView":11,
			"componentType":5123,
			"count":9030,
			"type":"SCALAR"
		},
		{
			"bufferView":12,
			"componentType":5126,
			"count":118,
			"max":[
				1.5392930507659912,
				-0.6005001068115234,
				51.84052658081055
			],
			"min":[
				-1.626941204071045,
				-11.301958084106445,
				34.81058883666992
			],
			"type":"VEC3"
		},
		{
			"bufferView":13,
			"componentType":5126,
			"count":118,
			"type":"VEC3"
		},
		{
			"bufferView":14,
			"componentType":5126,
			"count":118,
			"type":"VEC2"
		},
		{
			"bufferView":15,
			"componentType":5123,
			"count":228,
			"type":"SCALAR"
		},
		{
			"bufferView":16,
			"componentType":5126,
			"count":202,
			"max":[
				0.5500562787055969,
				-0.697224497795105,
				7.9213433265686035
			],
			"min":[
				-0.5463840365409851,
				-3.1677966117858887,
				5.583993911743164
			],
			"type":"VEC3"
		},
		{
			"bufferView":17,
			"componentType":5126,
			"count":202,
			"type":"VEC3"
		},
		{
			"bufferView":18,
			"componentType":5126,
			"count":202,
			"type":"VEC2"
		},
		{
			"bufferView":19,
			"componentType":5123,
			"count":420,
			"type":"SCALAR"
		},
		{
			"bufferView":20,
			"componentType":5126,
			"count":320,
			"max":[
				8.513906478881836,
				-2.1232051849365234,
				8.783173561096191
			],
			"min":[
				-0.5986042022705078,
				-16.692258834838867,
				6.364309310913086
			],
			"type":"VEC3"
		},
		{
			"bufferView":21,
			"componentType":5126,
			"count":320,
			"type":"VEC3"
		},
		{
			"bufferView":22,
			"componentType":5126,
			"count":320,
			"type":"VEC2"
		},
		{
			"bufferView":23,
			"componentType":5123,
			"count":672,
			"type":"SCALAR"
		}
	],
	"bufferViews":[
		{
			"buffer":0,
			"byteLength":11232,
			"byteOffset":0,
			"target":34962
		},
		{
			"buffer":0,
			"byteLength":11232,
			"byteOffset":11232,
			"target":34962
		},
		{
			"buffer":0,
			"byteLength":7488,
			"byteOffset":22464,
			"target":34962
		},
		{
			"buffer":0,
			"byteLength":3240,
			"byteOffset":29952,
			"target":34963
		},
		{
			"buffer":0,
			"byteLength":27648,
			"byteOffset":33192,
			"target":34962
		},
		{
			"buffer":0,
			"byteLength":27648,
			"byteOffset":60840,
			"target":34962
		},
		{
			"buffer":0,
			"byteLength":18432,
			"byteOffset":88488,
			"target":34962
		},
		{
			"buffer":0,
			"byteLength":6912,
			"byteOffset":106920,
			"target":34963
		},
		{
			"buffer":0,
			"byteLength":69024,
			"byteOffset":113832,
			"target":34962
		},
		{
			"buffer":0,
			"byteLength":69024,
			"byteOffset":182856,
			"target":34962
		},
		{
			"buffer":0,
			"byteLength":46016,
			"byteOffset":251880,
			"target":34962
		},
		{
			"buffer":0,
			"byteLength":18060,
			"byteOffset":297896,
			"target":34963
		},
		{
			"buffer":0,
			"byteLength":1416,
			"byteOffset":315956,
			"target":34962
		},
		{
			"buffer":0,
			"byteLength":1416,
			"byteOffset":317372,
			"target":34962
		},
		{
			"buffer":0,
			"byteLength":944,
			"byteOffset":318788,
			"target":34962
		},
		{
			"buffer":0,
			"byteLength":456,
			"byteOffset":319732,
			"target":34963
		},
		{
			"buffer":0,
			"byteLength":2424,
			"byteOffset":320188,
			"target":34962
		},
		{
			"buffer":0,
			"byteLength":2424,
			"byteOffset":322612,
			"target":34962
		},
		{
			"buffer":0,
			"byteLength":1616,
			"byteOffset":325036,
			"target":34962
		},
		{
			"buffer":0,
			"byteLength":840,
			"byteOffset":326652,
			"target":34963
		},
		{
			"buffer":0,
			"byteLength":3840,
			"byteOffset":327492,
			"target":34962
		},
		{
			"buffer":0,
			"byteLength":3840,
			"byteOffset":331332,
			"target":34962
		},
		{
			"buffer":0,
			"byteLength":2560,
			"byteOffset":335172,
			"target":34962
		},
		{
			"buffer":0,
			"byteLength":1344,
			"byteOffset":337732,
			"target":34963
		}
	],
	"buffers":[
		{
			"byteLength":339076,
			"uri":"type99lmg.bin"
		}
	]
}
