{
	"asset":{
		"generator":"Khronos glTF Blender I/O v3.6.27",
		"version":"2.0"
	},
	"scene":0,
	"scenes":[
		{
			"name":"Scene",
			"nodes":[
				0,
				1
			]
		}
	],
	"nodes":[
		{
			"mesh":0,
			"name":"Cube.161",
			"rotation":[
				0,
				0.7085155844688416,
				0,
				0.7056951522827148
			],
			"scale":[
				2.991999387741089,
				0.26520898938179016,
				0.3263227343559265
			],
			"translation":[
				-1.2083808183670044,
				0.3492690324783325,
				27.160457611083984
			]
		},
		{
			"mesh":1,
			"name":"Cube.027",
			"scale":[
				2.11991810798645,
				1,
				14.725259780883789
			],
			"translation":[
				-2.8588309288024902,
				5.731766223907471,
				48.89350509643555
			]
		}
	],
	"materials":[
		{
			"doubleSided":true,
			"name":"Material.001",
			"pbrMetallicRoughness":{
				"baseColorFactor":[
					0.800000011920929,
					0.800000011920929,
					0.800000011920929,
					1
				],
				"metallicFactor":0,
				"roughnessFactor":0.5
			}
		}
	],
	"meshes":[
		{
			"name":"Cube.172",
			"primitives":[
				{
					"attributes":{
						"POSITION":0,
						"NORMAL":1,
						"TEXCOORD_0":2
					},
					"indices":3
				}
			]
		},
		{
			"name":"Cube.176",
			"primitives":[
				{
					"attributes":{
						"POSITION":4,
						"NORMAL":5,
						"TEXCOORD_0":6
					},
					"indices":7,
					"material":0
				}
			]
		}
	],
	"accessors":[
		{
			"bufferView":0,
			"componentType":5126,
			"count":5936,
			"max":[
				16.868450164794922,
				1,
				9.968109130859375
			],
			"min":[
				-14.873695373535156,
				-2.60204815864563,
				-19.089311599731445
			],
			"type":"VEC3"
		},
		{
			"bufferView":1,
			"componentType":5126,
			"count":5936,
			"type":"VEC3"
		},
		{
			"bufferView":2,
			"componentType":5126,
			"count":5936,
			"type":"VEC2"
		},
		{
			"bufferView":3,
			"componentType":5123,
			"count":8904,
			"type":"SCALAR"
		},
		{
			"bufferView":4,
			"componentType":5126,
			"count":38998,
			"max":[
				3.2436180114746094,
				43.48345184326172,
				1.6471357345581055
			],
			"min":[
				-3.109147071838379,
				-6.081894874572754,
				-4.679793357849121
			],
			"type":"VEC3"
		},
		{
			"bufferView":5,
			"componentType":5126,
			"count":38998,
			"type":"VEC3"
		},
		{
			"bufferView":6,
			"componentType":5126,
			"count":38998,
			"type":"VEC2"
		},
		{
			"bufferView":7,
			"componentType":5123,
			"count":74628,
			"type":"SCALAR"
		}
	],
	"bufferViews":[
		{
			"buffer":0,
			"byteLength":71232,
			"byteOffset":0,
			"target":34962
		},
		{
			"buffer":0,
			"byteLength":71232,
			"byteOffset":71232,
			"target":34962
		},
		{
			"buffer":0,
			"byteLength":47488,
			"byteOffset":142464,
			"target":34962
		},
		{
			"buffer":0,
			"byteLength":17808,
			"byteOffset":189952,
			"target":34963
		},
		{
			"buffer":0,
			"byteLength":467976,
			"byteOffset":207760,
			"target":34962
		},
		{
			"buffer":0,
			"byteLength":467976,
			"byteOffset":675736,
			"target":34962
		},
		{
			"buffer":0,
			"byteLength":311984,
			"byteOffset":1143712,
			"target":34962
		},
		{
			"buffer":0,
			"byteLength":149256,
			"byteOffset":1455696,
			"target":34963
		}
	],
	"buffers":[
		{
			"byteLength":1604952,
			"uri":"vlak.bin"
		}
	]
}
